<svg data-v-e3e6ecb7="" width="801" height="337" viewBox="0 0 801 337" fill="none" xmlns="http://www.w3.org/2000/svg" alt="TCGplayer Logo" class="tcg-brand-logo"><path d="M58.5666 239.103H85.9476V261.954H58.5666V336.491H27.7765V261.954H0.395508V239.103H58.5666ZM153.287 310.469L153.254 310.436C148.49 310.565 142.539 310.661 135.463 310.661C132.245 310.661 129.765 309.99 128.032 308.614C126.294 307.239 125.073 304.805 124.427 301.288C123.752 297.766 123.431 292.711 123.431 286.118C123.431 279.525 123.752 274.465 124.427 270.948C125.102 267.426 126.294 264.963 128.032 263.621C129.77 262.246 132.279 261.575 135.463 261.575C140.001 261.575 143.894 261.575 147.111 261.637C150.328 261.7 153.354 261.7 156.184 261.7C159.014 261.7 162.106 261.762 165.419 261.829L167.703 239.524C164.486 238.595 161.397 237.861 158.405 237.349C155.413 236.836 152.133 236.419 148.561 236.165C144.956 235.878 140.614 235.748 135.5 235.748C124.723 235.748 116.067 237.382 109.536 240.612C103.005 243.842 98.3086 249.155 95.4121 256.486C92.5157 263.813 91.0987 273.703 91.0987 286.122C91.0987 298.541 92.5448 308.427 95.4121 315.758C98.3086 323.084 103.005 328.398 109.536 331.632C116.067 334.866 124.723 336.5 135.5 336.5C143.156 336.5 149.561 336.15 154.708 335.445C159.855 334.737 164.906 333.524 169.833 331.857L167.549 309.552C162.819 310.031 158.059 310.319 153.296 310.481L153.287 310.469ZM358.02 250.689C360.499 255.49 361.72 262.304 361.72 270.881C361.72 279.458 360.562 286.118 358.249 290.852C355.932 295.586 352.135 298.95 346.825 300.871C341.516 302.792 334.373 303.751 325.396 303.751C320.666 303.751 315.94 303.497 311.205 302.984C310.98 302.951 310.722 302.888 310.497 302.888V336.491H279.707V239.137C284.049 238.657 288.138 238.336 291.968 238.145C295.798 237.953 299.978 237.857 304.516 237.795C309.055 237.732 314.589 237.732 321.12 237.732C331.514 237.732 339.653 238.691 345.509 240.612H345.542C351.397 242.533 355.582 245.892 358.024 250.693L358.02 250.689ZM330.864 270.948C330.864 267.843 330.609 265.442 330.026 263.746C329.447 262.05 328.417 260.9 326.909 260.291C325.396 259.683 323.208 259.362 320.374 259.362H310.434V282.213H320.374C323.208 282.213 325.392 281.892 326.909 281.283C328.421 280.675 329.451 279.525 330.026 277.891V277.924C330.576 276.291 330.864 274.053 330.864 270.948ZM403.45 309.156C402.358 308.227 401.812 306.981 401.812 305.476V237.47H371.022V313.253C371.022 329.094 384.663 335.178 398.787 336.233C408.697 336.971 414.036 335.912 423.946 335.687C431.861 335.495 434.049 316.866 436.012 310.561H407.764C405.963 310.561 404.513 310.081 403.45 309.152V309.156ZM515.708 247.005L541.097 336.491H509.761L504.868 315.462H477.904L473.016 336.491H441.675L467.064 247.005C467.706 244.542 468.994 242.621 470.894 241.212C472.79 239.803 474.983 239.099 477.425 239.099H505.385C507.861 239.099 510.019 239.803 511.916 241.212H511.882C513.779 242.621 515.037 244.571 515.712 247.005H515.708ZM499.88 293.99L495.02 273.09C494.637 271.298 494.312 269.443 494.024 267.522C493.737 265.601 493.512 263.746 493.316 261.954H489.486C489.294 263.746 489.069 265.601 488.777 267.522C488.486 269.443 488.169 271.298 487.781 273.09L482.922 293.99H499.88ZM578.197 283.43H576.33C575.942 281.254 561.014 239.103 561.014 239.103H529.386L561.881 306.376V336.495H592.671V306.089L625.007 239.103H593.379C593.379 239.103 578.58 281.254 578.193 283.43H578.197ZM664.97 261.441H700.878L702.295 239.841C697.565 239.17 692.322 238.72 686.562 238.495C680.803 238.27 674.914 238.111 668.896 238.078C662.878 238.045 657.056 238.016 651.363 238.016C644.636 238.016 639.135 240.062 634.826 244.159C630.517 248.255 628.358 253.598 628.358 260.158V314.341C628.358 320.934 630.513 326.277 634.826 330.34C639.135 334.437 644.641 336.487 651.363 336.487C657.027 336.487 662.882 336.487 668.896 336.425C674.914 336.362 680.803 336.2 686.562 335.945C692.322 335.654 697.565 335.237 702.295 334.662L700.878 313.061H664.97C663.17 313.061 661.753 312.582 660.719 311.652C659.69 310.723 659.177 309.477 659.177 307.973V296.262H695.793V275.936H659.177V266.497C659.177 264.992 659.69 263.775 660.719 262.817V262.85C661.749 261.921 663.165 261.441 664.97 261.441ZM800.395 336.491H768.188L761.816 307.56C761.237 304.809 760.37 303.017 759.178 302.184C757.986 301.321 756.057 300.904 753.419 300.904C749.943 300.871 746.788 300.808 743.925 300.808V336.462H713.71V239.103C718.057 238.624 722.141 238.303 725.971 238.111C729.801 237.92 733.981 237.824 738.582 237.761C743.15 237.699 748.718 237.699 755.252 237.699C764.904 237.699 772.756 238.595 778.803 240.387C784.85 242.146 789.326 245.188 792.219 249.476C795.082 253.765 796.528 259.716 796.528 267.334C796.528 271.173 795.949 274.79 794.761 278.12C793.569 281.45 791.544 284.205 788.647 286.38C785.751 288.556 781.762 289.902 776.644 290.477V291.311C778.445 291.502 780.408 292.048 782.596 292.944C784.784 293.84 786.809 295.345 788.71 297.458C790.577 299.571 791.894 302.609 792.669 306.547L792.731 306.581L800.391 336.504L800.395 336.491ZM765.584 269.314C765.584 266.593 765.263 264.513 764.65 263.104C764.008 261.662 762.912 260.704 761.304 260.129C759.695 259.583 757.411 259.295 754.481 259.295H743.833V279.295H754.481C757.407 279.295 759.691 279.041 761.304 278.462C762.912 277.887 764.038 276.895 764.65 275.42V275.453C765.263 273.982 765.584 272.027 765.584 269.31V269.314ZM263.682 274.144V274.111H223.365V294.436H234.305V309.51H234.176C232.759 309.798 231.184 309.99 229.412 310.152C227.674 310.281 225.745 310.377 223.653 310.377C220.435 310.377 217.926 309.706 216.122 308.331C214.321 306.956 213.034 304.522 212.292 301.004C211.521 297.483 211.167 292.427 211.167 285.834C211.167 280.837 211.392 276.745 211.808 273.477C212.225 270.243 212.967 267.685 213.996 265.859C215.026 264.034 216.443 262.754 218.243 262.05C220.044 261.346 222.298 260.996 225.065 260.996C229.504 260.996 233.496 260.996 236.972 261.058C240.481 261.121 243.857 261.121 247.108 261.121C250.359 261.121 253.797 261.183 257.402 261.25L259.686 239.232C256.276 238.207 252.897 237.407 249.55 236.832C246.203 236.257 242.536 235.84 238.61 235.553C234.684 235.265 230.117 235.136 224.936 235.136C213.676 235.136 204.665 236.769 197.91 239.999C191.154 243.233 186.261 248.576 183.302 255.936C180.31 263.329 178.83 273.282 178.83 285.797C178.83 298.312 179.956 307.847 182.239 315.303C184.523 322.73 188.062 328.135 192.888 331.465C197.714 334.795 203.861 336.491 211.325 336.491C216.539 336.491 221.106 335.658 225.095 334.024C229.083 332.39 232.367 330.377 234.938 328.039C236.322 326.793 241.115 334.537 241.115 334.537H263.799L263.67 295.941V274.144H263.682Z" fill="black"></path><path d="M494.632 0.665039H306.161C296.492 0.665039 288.561 8.09583 287.761 17.5604C287.715 18.0814 287.69 18.6065 287.69 19.1399V210.607H513.106V19.1399C513.106 8.93768 504.834 0.665039 494.632 0.665039ZM462.187 91.7766L399.911 182.376C397.01 186.593 390.4 184.543 390.4 179.421V132.394H379.115V132.427H339.364C335.513 132.427 332.992 128.397 334.676 124.934L377.685 36.4979C378.556 34.7017 380.377 33.5639 382.374 33.5639H430.147C433.997 33.5639 436.519 37.594 434.835 41.0572L414.139 83.6082H457.886C462.083 83.6082 464.558 88.3134 462.183 91.7725L462.187 91.7766Z" fill="#0968F6"></path><path d="M159.119 111.222C159.119 111.222 100.256 143.47 100.21 143.495C92.6711 147.625 88.6077 157.369 91.4958 165.563C92.917 169.593 96.9137 172.281 99.9727 175.098C109.491 183.863 119.014 192.627 128.533 201.391C130.275 202.996 132.021 204.6 133.763 206.205C136.839 209.039 140.869 210.61 145.053 210.61H187.617L159.119 111.226V111.222Z" fill="#3CC14E"></path><path d="M271.055 39.5186L238.002 48.9956L182.407 64.9366C173.009 67.633 167.416 77.1393 169.437 86.558C169.525 86.9664 169.621 87.379 169.741 87.7874L174.105 103.012L204.957 210.606H271.059C271.059 210.543 271.055 210.485 271.055 210.423V39.5186Z" fill="#FFBD14"></path><path d="M700.586 143.495C700.536 143.47 641.678 111.222 641.678 111.222L613.18 210.606H655.743C659.927 210.606 663.957 209.035 667.033 206.201C668.775 204.596 670.521 202.992 672.263 201.387C681.782 192.623 691.305 183.858 700.824 175.094C703.883 172.277 707.88 169.589 709.301 165.559C712.189 157.369 708.121 147.621 700.586 143.491V143.495Z" fill="#FF8806"></path><path d="M683.062 156.095H683.095C658.707 148.38 659.899 189.669 626.696 190.819C625.566 190.852 624.762 191.94 625.087 193.028C625.312 193.732 625.829 194.307 626.504 194.565C663.537 209.702 665.921 165.505 683.133 159.362C684.708 158.787 684.675 156.611 683.066 156.099L683.062 156.095Z" fill="#FFC382"></path><path d="M666.479 143.133V143.166C668.154 142.558 668.121 140.287 666.416 139.741C645.962 133.352 642.682 159.641 624.499 171.164L620.96 183.5C646.929 184.275 650.838 148.793 666.479 143.133Z" fill="#FFC382"></path><path d="M160.472 145.936C154.458 144.032 148.182 143.506 141.939 143.34C138.238 143.24 131.599 143.865 127.04 144.39C124.364 144.686 122.447 147.086 122.747 149.745C123.31 154.476 124.268 161.54 125.423 165.19C128.461 174.655 133.812 184.478 141.014 191.509C147.457 197.818 157.463 202.911 166.811 202.219C167.474 202.153 168.065 202.119 168.595 202.119C173.583 201.857 176.917 196.797 175.038 192.163C170.016 179.777 158.355 169.458 150.162 163.377C149.007 162.523 150.062 160.714 151.383 161.306C161.26 165.645 174.713 173.738 180.427 185.499L170.245 149.987C167.178 148.316 163.735 147.045 160.468 145.994V145.928L160.472 145.936Z" fill="#A6F0A5"></path><path d="M631.055 87.7874C631.172 87.379 631.267 86.9706 631.359 86.558C633.384 77.1393 627.787 67.633 618.39 64.9366L562.794 48.9956L529.741 39.5186V210.423C529.741 210.485 529.741 210.543 529.737 210.606H595.839L626.691 103.012L631.055 87.7874Z" fill="#F02D2D"></path><path d="M551.575 123.448C552.017 123.269 552.483 123.111 552.959 122.99C554.18 122.682 555.451 122.648 556.493 123.298C558.243 124.386 558.856 127.024 558.081 128.862C552.875 141.223 566.887 160.036 558.722 179.356C557.451 182.365 555.567 185.054 553.355 187.417C551.304 189.584 553.742 192.984 556.476 191.755C569.066 186.029 581.594 177.385 586.928 164.732C591.029 155.026 591.192 145.282 589.725 135.801C589.141 132.046 584.486 130.496 581.819 133.213C581.394 133.634 580.923 134.001 580.519 134.409C575.447 139.506 572.709 133.405 574.697 129.683C576.226 126.803 577.818 123.598 579.056 120.656C586.049 104.057 583.936 89.6535 580.194 79.4596C580.194 79.4596 580.098 79.2637 580.065 79.1679C579.998 79.0053 579.935 78.8428 579.869 78.6803C579.248 77.0966 578.468 75.2504 577.881 74.0543C576.547 71.3037 572.771 70.9161 570.758 73.4374C570.692 73.5333 570.175 74.4085 570.108 74.6335C569.946 75.0545 569.783 75.4421 569.587 75.863C561.811 92.2999 545.028 95.3756 529.737 103.269V134.988C529.795 135.322 529.795 135.655 529.737 136.018V157.806C531 150.321 531.295 148.504 533.963 142.365C537.338 134.588 543.515 126.703 551.575 123.448Z" fill="#FFA0A0"></path><path d="M260.79 84.9519C260.79 84.9519 248.991 73.0826 248.962 73.0534C248.141 72.2283 246.678 71.7615 245.549 72.0991C244.211 72.495 243.732 73.887 243.236 75.0539C242.598 76.55 242.107 78.1045 241.519 79.6174C240.569 82.0554 239.61 84.4934 238.66 86.9356L237.614 89.6237C235.939 93.9372 231.779 96.7711 227.153 96.7586L210.3 96.7086C209.104 96.7211 207.949 97.3171 207.282 98.309C206.62 99.33 206.49 100.584 206.991 101.689L213.759 116.921C215.651 121.181 214.705 126.169 211.383 129.441L199.431 141.21C198.551 142.073 198.205 143.285 198.451 144.482C198.701 145.678 199.556 146.64 200.672 147.065L216.338 153.083C220.677 154.75 223.532 158.926 223.507 163.573L223.419 180.269C223.427 181.46 224.023 182.607 225.019 183.269C226.045 183.928 227.303 184.049 228.416 183.553L243.828 176.743C248.062 174.872 253.013 175.805 256.276 179.089C258.86 181.686 261.44 184.286 264.024 186.883C264.945 187.808 265.866 188.733 266.787 189.662C267.762 190.642 268.758 191.771 270.196 191.992C270.479 192.034 270.771 192.034 271.059 191.992V157.676C269.738 158.355 268.362 158.918 266.937 159.314C263.299 160.331 259.094 160.573 255.351 160.16C254.734 160.093 254.118 160.002 253.505 159.885C237.972 156.968 227.783 142.094 230.721 126.632C231.929 120.268 235.359 114.433 240.298 110.249C242.448 108.428 244.865 106.923 247.445 105.794C252.396 103.639 258.285 103.168 263.561 104.156C266.233 104.656 268.742 105.519 271.055 106.669V87.9984C267.387 88.7819 263.507 87.6858 260.79 84.9519Z" fill="#FFE58A"></path><path d="M257.206 109.454C254.184 109.592 251.346 110.346 248.77 111.53L248.758 111.509C248.587 111.596 248.416 111.684 248.245 111.775C248.195 111.8 248.145 111.821 248.095 111.846C240.623 115.872 235.688 123.895 236.063 132.926L236.076 132.955C236.618 145.479 247.253 155.16 259.852 154.552C262.873 154.414 265.712 153.66 268.287 152.476L268.3 152.497C268.471 152.409 268.641 152.322 268.812 152.23C268.862 152.205 268.912 152.184 268.962 152.159C269.683 151.763 270.383 151.338 271.054 150.876V113.322C267.129 110.667 262.328 109.208 257.206 109.458V109.454Z" fill="#FFE58A"></path><path d="M462.188 91.7752L399.912 182.374C397.011 186.592 390.402 184.541 390.402 179.419V132.392H379.116V132.426H339.365C335.515 132.426 332.993 128.396 334.677 124.932L377.686 36.4965C378.557 34.7002 380.379 33.5625 382.375 33.5625H430.148C433.999 33.5625 436.52 37.5925 434.836 41.0558L414.14 83.6068H457.887C462.084 83.6068 464.56 88.312 462.184 91.7711L462.188 91.7752Z" fill="white"></path></svg>