<?xml version="1.0" encoding="UTF-8"?>
<svg id="Layer_2" data-name="Layer 2" xmlns="http://www.w3.org/2000/svg" viewBox="0 0 594.45 115.13">
  <defs>
    <style>
      .cls-1 {
        fill: #282527;
      }

      .cls-1, .cls-2 {
        stroke-width: 0px;
      }

      .cls-2 {
        fill: #ffe406;
      }
    </style>
  </defs>
  <g id="Layer_2-2" data-name="Layer 2">
    <g>
      <g>
        <path class="cls-1" d="M115.14,57.57c0,44.51-13.06,57.57-57.57,57.57S0,102.08,0,57.57,13.06,0,57.57,0s57.57,13.06,57.57,57.57"/>
        <path class="cls-2" d="M44.86,84.19c5.86,0,9.34-6.08,7.01-15.55l-.66-2.69c-.35-1.5,1.06-2.07,1.85-.75l3.79,6.12c6.48,10.49,9.12,12.87,13.97,12.87,4.58,0,8.37-3.08,15.33-13.97l3.35-5.24c4.89-7.67,6.87-11.59,6.87-16.7,0-6.43-4.71-11.68-11.9-11.68-5.51,0-8.94,2.42-11.98,8.5l-.79,1.59c-.53,1.1-1.67,1.01-2.07,0l-.57-1.54c-2.16-5.77-5.9-8.55-11.5-8.55s-9.16,2.78-11.37,8.55l-.57,1.5c-.4,1.06-1.45,1.15-2.07,0l-.79-1.54c-3.08-6.04-6.61-8.5-12.12-8.5-7.18,0-11.85,5.24-11.85,11.68,0,5.11,1.85,9.03,6.83,16.57l3.26,4.93c7.84,11.9,11.46,14.41,15.99,14.41Z"/>
      </g>
      <g>
        <path class="cls-1" d="M181.6,61.39c-.46-1.73-1.84-1.73-2.31,0l-7.84,31.24h-21.33l-13.49-62.83h21.56l5.42,31.47c.23,1.5,2.08,1.5,2.42.12l8.3-31.59h14.99l8.19,31.36c.46,1.73,2.31,1.73,2.54.11l5.3-31.47h19.02l-13.49,62.83h-21.21l-8.07-31.24Z"/>
        <path class="cls-1" d="M227.94,92.63V14.23h21.33v26.06c0,1.38,1.61,1.73,2.54.23,5.3-8.42,9.8-11.88,18.56-11.88,12.34,0,18.56,8.88,18.56,22.71v41.27h-21.33v-29.17c0-8.3-1.84-13.95-8.76-13.95-6.23,0-9.57,4.73-9.57,13.72v29.4h-21.33Z"/>
        <path class="cls-1" d="M341.62,92.63l-2.08-8.88c-.35-1.61-1.5-1.61-2.65.11-4.04,6.11-8.53,9.92-17.87,9.92-12.91,0-24.9-11.18-24.9-32.63s11.99-32.51,24.9-32.51c9.34,0,13.83,3.8,17.87,9.92,1.15,1.73,2.31,1.73,2.65.12l2.08-8.88h18.22v62.83h-18.22ZM327.32,46.51c-6,0-10.72,4.96-10.72,14.76s4.73,14.64,10.72,14.64,10.72-5.19,10.72-14.76-4.73-14.64-10.72-14.64Z"/>
        <path class="cls-1" d="M372.98,47.9h-7.72v-18.1c8.42-.11,11.53-2.31,13.37-13.49h15.68v13.49h16.03v18.1h-16.03v21.56c0,5.3,3.34,7.61,8.3,7.61,2.77,0,5.53-.81,7.72-1.96v17.41c-3.69,1.15-7.84,1.84-12.8,1.84-14.07,0-24.56-7.84-24.56-23.75v-22.71Z"/>
        <path class="cls-1" d="M415.75,92.63V29.8h18.68l2.31,10.49c.35,1.38,1.96,1.73,2.88.23,5.3-8.42,9.8-11.88,18.56-11.88,12.34,0,18.56,8.88,18.56,22.71v41.27h-21.33v-29.17c0-8.3-1.84-13.95-8.76-13.95-6.23,0-9.57,4.73-9.57,13.72v29.4h-21.33Z"/>
        <path class="cls-1" d="M481.93,61.73c0-20.87,13.83-33.66,33.2-33.66s33.2,12.8,33.2,33.66-13.84,32.63-33.2,32.63-33.2-12.45-33.2-32.63ZM515.13,46.51c-6,0-10.72,4.96-10.72,14.76s4.73,14.64,10.72,14.64,10.72-5.19,10.72-14.76-4.73-14.64-10.72-14.64Z"/>
        <path class="cls-1" d="M557.1,47.9h-7.72v-18.1c8.42-.11,11.53-2.31,13.37-13.49h15.68v13.49h16.03v18.1h-16.03v21.56c0,5.3,3.34,7.61,8.3,7.61,2.77,0,5.53-.81,7.72-1.96v17.41c-3.69,1.15-7.84,1.84-12.8,1.84-14.07,0-24.56-7.84-24.56-23.75v-22.71Z"/>
      </g>
    </g>
  </g>
</svg>